PathFileType	4	(X/Y/Z)	C:\Users\Basilio\Documents\Thesis Gigler\squatting_fais\c3dfiles\073\SJ_pre3\markers_experimental.trc
DataRate	CameraRate	NumFrames	NumMarkers	Units	OrigDataRate	OrigDataStartFrame	OrigNumFrames
200.000000	200.000000	4	61	mm	200.000000	330	1320
Frame#	Time	FHD			LBHD			RBHD			C7			T10			CLAV			LSHO			LUUPA			LMUPA			LDUPA			LLEP			LMEP			LRAD			LUL			LRFIN			RSHO			RUPA1			RMUPA			RDUPA			RLEP			RMEP			RRAD			RUL			RUFIN			LASI			RASI			USACR			LSACR			RSACR			LTHI1			LTHI2			LTHI3			LTHI4			LLFC			LMFC			LTIB1			LTIB2			LTIB3			LTIB4			LLMAL			LMMAL			LHEE			LMT1			LMT2			LMT5			RTHI			RTHI2			RTHI3			RTHI4			RLFC			RMFC			RTIB1			RTIB2			RTIB3			RTIB4			RLMAL			RMMAL			RHEE			RMT1			RMT2			RMT5			
		X1	Y1	Z1	X2	Y2	Z2	X3	Y3	Z3	X4	Y4	Z4	X5	Y5	Z5	X6	Y6	Z6	X7	Y7	Z7	X8	Y8	Z8	X9	Y9	Z9	X10	Y10	Z10	X11	Y11	Z11	X12	Y12	Z12	X13	Y13	Z13	X14	Y14	Z14	X15	Y15	Z15	X16	Y16	Z16	X17	Y17	Z17	X18	Y18	Z18	X19	Y19	Z19	X20	Y20	Z20	X21	Y21	Z21	X22	Y22	Z22	X23	Y23	Z23	X24	Y24	Z24	X25	Y25	Z25	X26	Y26	Z26	X27	Y27	Z27	X28	Y28	Z28	X29	Y29	Z29	X30	Y30	Z30	X31	Y31	Z31	X32	Y32	Z32	X33	Y33	Z33	X34	Y34	Z34	X35	Y35	Z35	X36	Y36	Z36	X37	Y37	Z37	X38	Y38	Z38	X39	Y39	Z39	X40	Y40	Z40	X41	Y41	Z41	X42	Y42	Z42	X43	Y43	Z43	X44	Y44	Z44	X45	Y45	Z45	X46	Y46	Z46	X47	Y47	Z47	X48	Y48	Z48	X49	Y49	Z49	X50	Y50	Z50	X51	Y51	Z51	X52	Y52	Z52	X53	Y53	Z53	X54	Y54	Z54	X55	Y55	Z55	X56	Y56	Z56	X57	Y57	Z57	X58	Y58	Z58	X59	Y59	Z59	X60	Y60	Z60	X61	Y61	Z61	

331	1.65	-0.8916659951210024	1221.330322265625	-979.5942993164065	-139.0173797607422	1215.228759765625	-998.460876464844	-160.3443603515625	1204.94970703125	-864.870788574219	-198.8090972900391	1155.75244140625	-927.2244262695315	-476.4321594238282	963.2475585937502	-916.305358886719	-158.5282440185547	1006.600280761719	-926.7476196289065	-159.4299011230469	1035.96533203125	-1092.998046875	-245.2969207763672	1021.092346191406	-1219.201782226563	-265.2686767578126	975.1060180664065	-1225.349487304688	-289.1383972167969	1004.737365722656	-1271.3671875	-367.1180419921876	964.1196899414065	-1334.77978515625	-433.1867675781251	1014.513244628906	-1316.35693359375	-493.3193359375001	808.0480957031252	-1158.201416015625	-458.9646301269532	757.3914794921876	-1199.93505859375	-475.0263977050782	793.6800537109377	-1099.556274414063	-147.521957397461	1028.262939453125	-761.7374877929689	-246.645248413086	1028.891235351563	-615.4852905273439	-268.9296569824219	985.8281250000002	-606.3979492187501	-296.2429199218751	1022.166320800781	-566.6949462890626	-366.2727966308594	983.1352539062502	-514.3860473632814	-434.9246826171876	1030.705078125	-559.3984375000001	-516.4780883789064	818.018249511719	-666.6549682617189	-476.8116149902345	767.8402709960939	-625.3793334960939	-477.5225830078126	796.2169189453127	-725.9205322265626	-461.6034240722657	759.0949096679689	-1044.359008789063	-446.5222778320314	749.6658935546876	-801.001892089844	-576.6147460937501	886.9539184570315	-907.551452636719	-604.1740112304689	870.7136230468752	-935.236755371094	-604.6257934570314	867.844909667969	-879.0061645507815	-381.3024597167969	598.0957031250001	-1166.715942382813	-298.2340698242188	576.4741821289064	-1174.39453125	-269.6335754394532	605.2794189453126	-1145.284790039063	-277.6062927246094	518.4938354492189	-1172.1259765625	-249.1643676757813	474.0503540039064	-1180.938232421875	-231.0243682861329	457.0434570312501	-1056.0634765625	-249.0015411376954	277.2945251464844	-1152.312866210938	-324.7123718261719	269.1213073730469	-1199.376953125	-291.0741271972657	246.6034393310547	-1182.440063476563	-318.3406066894532	172.1924591064453	-1152.384887695313	-423.3590087890626	85.74097442626955	-1180.655517578125	-400.6175842285157	102.6826400756836	-1094.404541015625	-482.5434875488282	50.37014389038087	-1136.490234375	-253.5477905273438	55.3607521057129	-1127.750610351563	-256.9328308105469	56.23954391479494	-1166.463745117188	-297.2993469238282	36.44173431396485	-1217.45458984375	-458.4006347656251	619.7358398437501	-679.6938476562501	-394.090057373047	609.3458862304689	-667.9293212890626	-371.7992248535157	632.9322509765626	-674.3363037109376	-354.1329650878907	535.0984497070314	-664.6239013671876	-253.6415100097657	446.1370849609376	-655.3499145507814	-230.4946289062501	424.8656005859376	-775.3361816406252	-261.1460571289063	282.0267028808594	-728.4894409179689	-326.6839599609376	227.3153076171876	-660.6918334960939	-303.4804382324219	212.4027404785157	-699.5211791992189	-336.8402709960938	177.582015991211	-731.4771728515626	-441.7666015625001	84.37351226806642	-674.8231811523439	-420.3872985839845	97.30840301513675	-763.0665283203126	-510.4693298339845	44.9586410522461	-733.1924438476564	-283.0806884765626	54.77197265625001	-701.0714111328126	-290.6346130371094	56.18069458007814	-660.2552490234376	-339.1999206542969	34.9074935913086	-618.6674194335939	
332	1.655	0.1556778252124787	1217.410278320313	-979.9393310546877	-137.8864288330078	1211.259521484375	-998.599548339844	-159.2944946289063	1201.14453125	-864.9604492187502	-197.6784973144532	1151.992309570313	-927.4138183593752	-475.8426208496095	960.3702392578127	-916.3741455078127	-157.8161926269532	1002.786804199219	-926.9658203125002	-158.4801788330078	1032.0546875	-1093.036865234375	-243.5099639892579	1017.641052246094	-1219.897827148438	-264.6212463378907	971.6441650390627	-1225.517944335938	-288.1974487304688	1001.17822265625	-1271.566162109375	-366.3571472167969	961.204284667969	-1334.990234375	-432.2131652832032	1011.820983886719	-1316.647827148438	-493.6299133300782	805.8244628906252	-1158.418090820313	-459.0447082519532	754.9320678710939	-1199.990478515625	-475.2361145019532	791.4602661132815	-1099.682739257813	-146.6654968261719	1024.499389648438	-761.8735351562501	-245.741439819336	1025.678466796875	-615.6647338867189	-268.1621704101563	982.7046508789065	-606.5521240234376	-295.2963562011719	1019.193298339844	-566.8771972656251	-365.4466247558594	980.564880371094	-514.4619750976564	-433.9879760742189	1028.31103515625	-559.6181640625001	-516.2844238281251	815.921081542969	-666.7924194335939	-476.7788391113282	765.5765991210939	-625.5316772460939	-477.3911437988282	794.1307373046877	-726.0516357421876	-459.9195556640626	757.4318847656251	-1043.932983398438	-445.8118896484376	747.8649291992189	-800.5447998046877	-576.2701416015626	884.5064697265627	-907.6282958984377	-603.4782104492189	868.2227783203127	-935.3189086914065	-604.2545166015626	865.2366943359377	-878.9957275390627	-381.1636047363282	596.8982543945314	-1166.872436523438	-297.9617309570313	575.8253173828126	-1174.609985351563	-269.4600524902344	604.7114257812501	-1145.567504882813	-277.1139221191407	517.8604736328126	-1172.545043945313	-248.3374633789063	473.4724426269532	-1181.183837890625	-230.1673278808594	456.5345764160157	-1056.527221679688	-248.4983215332032	276.9145812988282	-1152.436279296875	-324.2274475097657	268.8385925292969	-1199.495483398438	-290.3839111328126	246.3726196289063	-1182.649291992188	-318.1020507812501	171.9350280761719	-1152.428100585938	-423.2776184082032	85.73435211181642	-1180.65478515625	-400.5739135742189	102.6565475463867	-1094.356811523438	-482.4611816406251	50.38174438476564	-1136.4140625	-253.5168762207032	55.34053421020509	-1127.758056640625	-256.9259643554688	56.4011688232422	-1165.834594726563	-297.3815307617188	36.44586563110352	-1217.473266601563	-458.1978454589845	618.1126098632814	-679.6807861328126	-393.9016418457032	608.0382690429689	-667.8120727539064	-371.5595703125001	631.7680053710939	-674.4223632812501	-353.4912109375001	534.0120239257814	-664.4952392578126	-252.6186676025391	445.599090576172	-655.2023315429689	-229.3593292236329	424.2360229492189	-775.0020141601565	-260.4707336425782	281.4521484375001	-728.3332519531251	-326.1350402832032	226.9179840087891	-660.6480712890626	-302.5287475585938	211.6516571044922	-699.5936889648439	-336.3131408691407	177.1015625	-731.3948364257814	-441.6407470703126	84.39184570312501	-674.9617309570314	-420.2965393066407	97.26308441162112	-763.1584472656251	-510.4126281738282	45.02093124389649	-733.2772827148439	-282.4665832519532	55.00233078002931	-700.5147705078126	-290.4711914062501	56.00838470458986	-660.3265991210939	-339.1932678222657	34.90728378295899	-618.6810913085939	
333	1.66	1.577019929885865	1213.557373046875	-980.0706787109377	-136.896957397461	1207.3623046875	-998.7219238281252	-158.310775756836	1197.183227539063	-865.043151855469	-196.5953216552735	1148.260864257813	-927.641296386719	-475.2552490234376	957.5374755859377	-916.4134521484377	-156.956298828125	998.9290771484377	-927.0652465820315	-157.6758422851563	1028.208984375	-1093.080688476563	-243.4204406738282	1014.108215332031	-1219.5029296875	-263.8433532714844	968.290222167969	-1225.72119140625	-287.3266296386719	998.218200683594	-1271.665893554688	-365.4867553710938	958.2841796875002	-1335.33056640625	-431.2766418457032	1009.262756347656	-1316.935791015625	-493.763885498047	803.7006835937502	-1158.657470703125	-459.365692138672	752.4619140625001	-1200.227905273438	-475.4407653808595	789.2893066406252	-1099.830932617188	-145.8748321533203	1020.692016601563	-762.0736083984376	-244.8010253906251	1022.43310546875	-615.8412475585939	-267.3294067382813	979.5440063476565	-606.7367553710939	-294.3927612304688	1016.190979003906	-567.0625000000001	-364.7112121582032	977.9755859375002	-514.6247558593751	-433.0863037109376	1025.963256835938	-559.7644653320314	-516.1256103515626	813.7373046875002	-666.8651123046876	-476.7104492187501	763.4143676757814	-625.7035522460939	-477.3532104492189	791.7881469726565	-726.1511840820314	-461.9428710937501	753.2864379882814	-1044.553466796875	-446.3779296875001	744.0716552734376	-801.262390136719	-575.9559326171876	881.9488525390627	-907.6743774414065	-603.7108764648439	865.7762451171877	-935.262390136719	-604.0332641601564	863.0035400390627	-879.0735473632815	-380.7656555175782	595.4860839843751	-1167.097045898438	-297.6421203613282	575.1018066406251	-1174.922485351563	-269.2862548828126	604.0449218750001	-1145.840454101563	-276.5313720703126	517.0419921875001	-1172.987915039063	-247.6704864501954	472.9720764160157	-1181.465087890625	-229.2300567626954	456.0823669433595	-1056.785278320313	-247.9687652587891	276.4705505371094	-1152.614379882813	-323.8245849609376	268.5404663085938	-1199.637084960938	-289.8457031250001	246.0276184082032	-1182.694091796875	-317.8373413085938	171.7375640869141	-1152.598388671875	-423.1933898925782	85.76094818115236	-1180.639282226563	-400.4801635742189	102.6856231689453	-1094.311767578125	-482.4394531250001	50.36116790771486	-1136.366577148438	-253.4487304687501	55.29966354370119	-1127.722045898438	-256.8106384277344	56.21538162231447	-1166.34814453125	-297.3595275878907	36.41453170776368	-1217.446655273438	-457.9773864746095	616.4346923828126	-679.7069091796876	-393.6301574707032	606.7137451171876	-667.8641357421876	-371.4972839355469	630.5070800781251	-674.5109252929689	-352.9589843750001	532.8875122070314	-664.3150634765626	-251.5307159423829	444.9630126953126	-655.0018920898439	-228.2416992187501	423.7387695312501	-774.7442626953127	-259.6282043457032	280.9006042480469	-728.1854248046876	-325.6169738769532	226.5262756347657	-660.6044311523439	-302.5259094238282	211.6353302001954	-699.5127563476564	-335.9340209960938	177.0282897949219	-731.4839477539064	-441.5189819335939	84.38623046875001	-675.0459594726564	-420.1604919433595	97.24886322021487	-763.2171630859376	-510.3797912597657	45.07759094238282	-733.3449707031251	-282.9580993652344	54.71862792968751	-701.0720825195314	-290.5825195312501	56.05971527099611	-660.2778930664064	-339.1871948242188	34.93291091918946	-618.6882934570314	
334	1.665	2.752961158752442	1209.657104492188	-980.1065673828127	-135.6569366455078	1203.54052734375	-998.8848266601565	-157.1855773925782	1193.149047851563	-865.193054199219	-195.4929962158204	1144.588623046875	-927.7561645507815	-474.6051635742189	954.7500000000002	-916.5407714843752	-156.117904663086	995.0692138671877	-927.2524414062502	-156.7415618896485	1024.31494140625	-1093.169555664063	-241.7325744628907	1010.764343261719	-1220.193725585938	-263.0660705566407	964.9783325195315	-1225.800415039063	-286.4018249511719	994.764343261719	-1271.671630859375	-364.8960266113282	955.3352050781252	-1335.454833984375	-430.3505249023439	1006.77734375	-1317.243896484375	-493.8288879394532	801.356628417969	-1158.840454101563	-459.4346923828126	750.2082519531251	-1200.279052734375	-475.2618408203126	786.9844970703127	-1100.071044921875	-145.0270233154297	1016.907592773438	-762.2343750000001	-243.8919982910157	1019.257141113281	-616.0783691406251	-266.5433654785157	976.4429931640627	-606.8813476562501	-293.5044250488282	1013.223754882813	-567.1998901367189	-363.9479675292969	975.3301391601565	-514.7648315429689	-432.1038208007814	1023.477294921875	-559.8616333007814	-515.9550170898439	811.6527099609377	-667.0394287109376	-476.6339416503907	761.1885986328126	-625.9089355468751	-477.2249145507814	789.6895751953127	-726.3340454101564	-461.6724853515626	750.3463134765626	-1044.23779296875	-446.942108154297	740.8137817382814	-800.9287109375002	-575.6328735351564	879.323425292969	-907.6729125976565	-603.3135375976564	863.3137817382815	-935.3239746093752	-603.8842773437501	860.4521484375002	-879.0401611328127	-380.6997375488282	594.2751464843751	-1167.214599609375	-297.3356018066407	574.1392822265626	-1175.146850585938	-269.1383972167969	603.2678833007814	-1146.23095703125	-275.8996276855469	516.2769775390626	-1173.400634765625	-246.8165893554688	472.398651123047	-1181.748046875	-228.3029479980469	455.5722045898439	-1056.994873046875	-247.4530334472657	276.0360717773438	-1152.954345703125	-323.3285522460938	268.3205261230469	-1199.775146484375	-289.3236389160157	245.6613006591797	-1182.717041015625	-317.5794372558594	171.538314819336	-1152.637817382813	-423.1531677246095	85.74535369873048	-1180.524536132813	-400.3648986816407	102.65771484375	-1094.262084960938	-482.4651794433595	50.46575164794923	-1136.304321289063	-253.4038085937501	55.26013183593751	-1127.756591796875	-256.9079589843751	56.19350433349611	-1166.477294921875	-297.2746582031251	36.39290618896485	-1217.46728515625	-457.8126525878907	614.8718261718751	-679.6739501953126	-393.4047851562501	605.4126586914064	-667.9514770507814	-371.4183959960938	629.2735595703126	-674.5444335937501	-352.4165954589844	531.7614746093751	-664.1293945312501	-250.5157318115235	444.3467407226564	-654.9313354492189	-227.385971069336	423.2356567382814	-774.6782836914065	-258.9568176269532	280.3652648925782	-728.1854248046876	-325.0436096191407	226.2002105712891	-660.5693359375001	-302.2405090332032	211.2870025634766	-699.5772705078126	-335.6079406738282	176.7586517333985	-731.4838867187501	-441.4258422851564	84.39192962646486	-675.1459350585939	-420.079803466797	97.20557403564456	-763.3356933593751	-510.3502502441407	45.13327407836915	-733.4035034179689	-282.8927001953126	54.71670532226564	-701.1033325195314	-290.4198608398438	55.99072265625001	-660.3703002929689	-339.1836242675782	34.90084838867188	-618.6954956054689	
